<mxfile host="app.diagrams.net" modified="2021-03-20T08:57:34.379Z" agent="5.0 (X11)" etag="h7nRPBZ09618lWjCu_0b" version="14.4.9" type="github">
  <diagram id="QiDqEkDkSL9uCUw2_H0L" name="Page-1">
    <mxGraphModel dx="449" dy="770" grid="1" gridSize="10" guides="1" tooltips="1" connect="1" arrows="1" fold="1" page="1" pageScale="1" pageWidth="827" pageHeight="1169" math="0" shadow="0">
      <root>
        <mxCell id="0" />
        <mxCell id="1" parent="0" />
        <mxCell id="sT3fVaRQvANdI86sYXps-3" value="" style="edgeStyle=orthogonalEdgeStyle;rounded=0;orthogonalLoop=1;jettySize=auto;html=1;" edge="1" parent="1" source="sT3fVaRQvANdI86sYXps-1" target="sT3fVaRQvANdI86sYXps-2">
          <mxGeometry relative="1" as="geometry" />
        </mxCell>
        <mxCell id="sT3fVaRQvANdI86sYXps-1" value="&lt;font style=&quot;font-size: 24px&quot;&gt;START&lt;/font&gt;" style="ellipse;whiteSpace=wrap;html=1;" vertex="1" parent="1">
          <mxGeometry x="310" y="30" width="120" height="80" as="geometry" />
        </mxCell>
        <mxCell id="sT3fVaRQvANdI86sYXps-5" value="" style="edgeStyle=orthogonalEdgeStyle;rounded=0;orthogonalLoop=1;jettySize=auto;html=1;" edge="1" parent="1" source="sT3fVaRQvANdI86sYXps-2" target="sT3fVaRQvANdI86sYXps-4">
          <mxGeometry relative="1" as="geometry" />
        </mxCell>
        <mxCell id="sT3fVaRQvANdI86sYXps-2" value="WCZYTAJ ARR " style="shape=parallelogram;perimeter=parallelogramPerimeter;whiteSpace=wrap;html=1;fixedSize=1;" vertex="1" parent="1">
          <mxGeometry x="310" y="150" width="120" height="60" as="geometry" />
        </mxCell>
        <mxCell id="sT3fVaRQvANdI86sYXps-7" value="" style="edgeStyle=orthogonalEdgeStyle;rounded=0;orthogonalLoop=1;jettySize=auto;html=1;" edge="1" parent="1" source="sT3fVaRQvANdI86sYXps-4" target="sT3fVaRQvANdI86sYXps-6">
          <mxGeometry relative="1" as="geometry" />
        </mxCell>
        <mxCell id="sT3fVaRQvANdI86sYXps-4" value="&lt;div&gt;max = -1&lt;/div&gt;&lt;div&gt;licznik =0&lt;br&gt;&lt;/div&gt;" style="rounded=0;whiteSpace=wrap;html=1;" vertex="1" parent="1">
          <mxGeometry x="310" y="280" width="120" height="60" as="geometry" />
        </mxCell>
        <mxCell id="sT3fVaRQvANdI86sYXps-8" style="edgeStyle=orthogonalEdgeStyle;rounded=0;orthogonalLoop=1;jettySize=auto;html=1;entryX=1;entryY=0.5;entryDx=0;entryDy=0;" edge="1" parent="1" source="sT3fVaRQvANdI86sYXps-6" target="sT3fVaRQvANdI86sYXps-12">
          <mxGeometry relative="1" as="geometry">
            <mxPoint x="240" y="460" as="targetPoint" />
          </mxGeometry>
        </mxCell>
        <mxCell id="sT3fVaRQvANdI86sYXps-9" style="edgeStyle=orthogonalEdgeStyle;rounded=0;orthogonalLoop=1;jettySize=auto;html=1;entryX=0;entryY=0.5;entryDx=0;entryDy=0;" edge="1" parent="1" source="sT3fVaRQvANdI86sYXps-6" target="sT3fVaRQvANdI86sYXps-23">
          <mxGeometry relative="1" as="geometry">
            <mxPoint x="520" y="460" as="targetPoint" />
          </mxGeometry>
        </mxCell>
        <mxCell id="sT3fVaRQvANdI86sYXps-6" value="licznik&amp;lt;10" style="rhombus;whiteSpace=wrap;html=1;" vertex="1" parent="1">
          <mxGeometry x="330" y="420" width="80" height="80" as="geometry" />
        </mxCell>
        <mxCell id="sT3fVaRQvANdI86sYXps-10" value="NIE" style="text;html=1;align=center;verticalAlign=middle;resizable=0;points=[];autosize=1;" vertex="1" parent="1">
          <mxGeometry x="430" y="440" width="40" height="20" as="geometry" />
        </mxCell>
        <mxCell id="sT3fVaRQvANdI86sYXps-11" value="TAK" style="text;html=1;align=center;verticalAlign=middle;resizable=0;points=[];autosize=1;" vertex="1" parent="1">
          <mxGeometry x="270" y="440" width="40" height="20" as="geometry" />
        </mxCell>
        <mxCell id="sT3fVaRQvANdI86sYXps-13" style="edgeStyle=orthogonalEdgeStyle;rounded=0;orthogonalLoop=1;jettySize=auto;html=1;" edge="1" parent="1" source="sT3fVaRQvANdI86sYXps-12">
          <mxGeometry relative="1" as="geometry">
            <mxPoint x="175" y="310" as="targetPoint" />
          </mxGeometry>
        </mxCell>
        <mxCell id="sT3fVaRQvANdI86sYXps-14" style="edgeStyle=orthogonalEdgeStyle;rounded=0;orthogonalLoop=1;jettySize=auto;html=1;" edge="1" parent="1" source="sT3fVaRQvANdI86sYXps-12">
          <mxGeometry relative="1" as="geometry">
            <mxPoint x="175" y="610" as="targetPoint" />
          </mxGeometry>
        </mxCell>
        <mxCell id="sT3fVaRQvANdI86sYXps-12" value="arr[licznik]&amp;gt;max" style="rhombus;whiteSpace=wrap;html=1;" vertex="1" parent="1">
          <mxGeometry x="110" y="407.5" width="130" height="105" as="geometry" />
        </mxCell>
        <mxCell id="sT3fVaRQvANdI86sYXps-15" value="TAK" style="text;html=1;align=center;verticalAlign=middle;resizable=0;points=[];autosize=1;" vertex="1" parent="1">
          <mxGeometry x="170" y="540" width="40" height="20" as="geometry" />
        </mxCell>
        <mxCell id="sT3fVaRQvANdI86sYXps-16" value="NIE" style="text;html=1;align=center;verticalAlign=middle;resizable=0;points=[];autosize=1;" vertex="1" parent="1">
          <mxGeometry x="170" y="360" width="40" height="20" as="geometry" />
        </mxCell>
        <mxCell id="sT3fVaRQvANdI86sYXps-18" value="" style="edgeStyle=orthogonalEdgeStyle;rounded=0;orthogonalLoop=1;jettySize=auto;html=1;" edge="1" parent="1" source="sT3fVaRQvANdI86sYXps-17">
          <mxGeometry relative="1" as="geometry">
            <mxPoint x="370" y="380" as="targetPoint" />
            <Array as="points">
              <mxPoint x="280" y="270" />
              <mxPoint x="280" y="380" />
            </Array>
          </mxGeometry>
        </mxCell>
        <mxCell id="sT3fVaRQvANdI86sYXps-17" value="licznik =licznik+1" style="rounded=0;whiteSpace=wrap;html=1;" vertex="1" parent="1">
          <mxGeometry x="115" y="240" width="120" height="60" as="geometry" />
        </mxCell>
        <mxCell id="sT3fVaRQvANdI86sYXps-20" style="edgeStyle=orthogonalEdgeStyle;rounded=0;orthogonalLoop=1;jettySize=auto;html=1;entryX=0;entryY=0.5;entryDx=0;entryDy=0;" edge="1" parent="1" source="sT3fVaRQvANdI86sYXps-19" target="sT3fVaRQvANdI86sYXps-17">
          <mxGeometry relative="1" as="geometry">
            <Array as="points">
              <mxPoint x="80" y="640" />
              <mxPoint x="80" y="270" />
            </Array>
          </mxGeometry>
        </mxCell>
        <mxCell id="sT3fVaRQvANdI86sYXps-19" value="max = arr[licznik]" style="rounded=0;whiteSpace=wrap;html=1;" vertex="1" parent="1">
          <mxGeometry x="115" y="610" width="120" height="60" as="geometry" />
        </mxCell>
        <mxCell id="sT3fVaRQvANdI86sYXps-26" value="" style="edgeStyle=orthogonalEdgeStyle;rounded=0;orthogonalLoop=1;jettySize=auto;html=1;" edge="1" parent="1" source="sT3fVaRQvANdI86sYXps-23" target="sT3fVaRQvANdI86sYXps-24">
          <mxGeometry relative="1" as="geometry" />
        </mxCell>
        <mxCell id="sT3fVaRQvANdI86sYXps-23" value="wypisanie max" style="shape=parallelogram;perimeter=parallelogramPerimeter;whiteSpace=wrap;html=1;fixedSize=1;" vertex="1" parent="1">
          <mxGeometry x="520" y="430" width="120" height="60" as="geometry" />
        </mxCell>
        <mxCell id="sT3fVaRQvANdI86sYXps-24" value="STOP" style="ellipse;whiteSpace=wrap;html=1;" vertex="1" parent="1">
          <mxGeometry x="520" y="540" width="120" height="80" as="geometry" />
        </mxCell>
      </root>
    </mxGraphModel>
  </diagram>
</mxfile>
